<svg width="45" height="49" viewBox="0 0 45 49" fill="none" xmlns="http://www.w3.org/2000/svg">
<path d="M28.3233 4.18985H39.5732V6.98308H28.3233V4.18985ZM28.3233 12.5695H44.3947V15.3628H28.3233V12.5695ZM28.3233 20.9492H39.5732V23.7425H28.3233V20.9492ZM12.2518 18.413V0H9.03754V18.413C7.96523 18.7424 7.06147 19.3907 6.48599 20.2432C5.91051 21.0957 5.70036 22.0976 5.89269 23.0717C6.08502 24.0459 6.66744 24.9296 7.53701 25.5666C8.40659 26.2037 9.50733 26.5531 10.6447 26.5531C11.782 26.5531 12.8828 26.2037 13.7523 25.5666C14.6219 24.9296 15.2043 24.0459 15.3967 23.0717C15.589 22.0976 15.3789 21.0957 14.8034 20.2432C14.2279 19.3907 13.3241 18.7424 12.2518 18.413Z" fill="white"/>
<path d="M45 12.6791H17.6368C16.6284 11.5069 15.2204 10.6408 13.6131 10.204C12.0057 9.76713 10.2808 9.78175 8.68356 10.2458C7.08632 10.7098 5.69806 11.5996 4.71618 12.7886C3.73429 13.9776 3.20876 15.4054 3.21429 16.8689V32.3853C1.66393 33.7604 0.615231 35.5026 0.199697 37.3935C-0.215838 39.2844 0.0202863 41.2399 0.878462 43.0146C1.73664 44.7894 3.17867 46.3045 5.02372 47.3699C6.86878 48.4353 9.03474 49.0037 11.25 49.0037C13.4653 49.0037 15.6312 48.4353 17.4763 47.3699C19.3213 46.3045 20.7634 44.7894 21.6215 43.0146C22.4797 41.2399 22.7158 39.2844 22.3003 37.3935C21.8848 35.5026 20.8361 33.7604 19.2857 32.3853V16.8689C19.2857 16.3998 19.2313 15.9319 19.1234 15.4723H45V12.6791ZM11.25 46.1979C9.62316 46.1999 8.03402 45.7722 6.6933 44.9714C5.35258 44.1707 4.3236 43.0347 3.7428 41.7141C3.162 40.3936 3.05681 38.9508 3.44117 37.577C3.82554 36.2033 4.6813 34.9636 5.89501 34.0222L6.42858 33.6046V16.8689C6.42858 15.7577 6.93655 14.692 7.84074 13.9063C8.74493 13.1205 9.97128 12.6791 11.25 12.6791C12.5287 12.6791 13.7551 13.1205 14.6593 13.9063C15.5635 14.692 16.0714 15.7577 16.0714 16.8689V33.6046L16.605 34.0222C17.8187 34.9636 18.6745 36.2033 19.0588 37.577C19.4432 38.9508 19.338 40.3936 18.7572 41.7141C18.1764 43.0347 17.1474 44.1707 15.8067 44.9714C14.466 45.7722 12.8769 46.1999 11.25 46.1979Z" fill="white"/>
</svg>
